<?xml version="1.0" encoding="iso-8859-1"?>
<!-- Generator: Adobe Illustrator 19.0.1, SVG Export Plug-In . SVG Version: 6.00 Build 0)  -->
<svg version="1.1" xmlns="http://www.w3.org/2000/svg" xmlns:xlink="http://www.w3.org/1999/xlink" x="0px" y="0px"
	 viewBox="0 0 128 128" style="enable-background:new 0 0 128 128;" xml:space="preserve">
<g id="_x31_5">
	<path id="icon_11_" style="fill:#262626;" d="M127.133,61.537c-1.597-2.158-5.693-3.603-9.653-3.433
		c-5.132,0.221-9.653,2.957-12.814,7.749l-11.641,7.46c-1.75-2.158-4.401-3.535-7.375-3.535H71.732
		c-1.258,0-6.713-1.156-11.097-2.073c-7.307-1.547-12.253-2.566-14.428-2.566c-6.169,0-11.913,4.164-15.72,7.715
		c-1.427,1.411-3.263,3.28-5.132,5.183c-0.935,0.935-1.954,1.971-2.94,2.974l-4.045-4.045L0,95.491l32.476,32.476l18.371-18.524
		l-2.617-2.617c1.224-1.275,1.988-1.784,2.906-1.784h35.178l0.578-0.323c3.025-1.699,37.421-33.393,40.531-40.667L128,62.71
		L127.133,61.537z M34.719,114.627c-2.345,0-4.249-1.92-4.249-4.266s1.903-4.249,4.249-4.249c2.362,0,4.266,1.903,4.266,4.249
		S37.081,114.627,34.719,114.627z M84.869,99.944H51.135c-2.787,0-4.69,1.394-6.509,3.28L26.018,84.615
		c0.901-0.901,1.886-1.903,2.957-2.991c1.869-1.903,3.705-3.756,5.047-5.115c2.515-2.345,7.443-6.271,12.185-6.271
		c1.801,0,8.208,1.36,13.357,2.447c6.441,1.36,10.468,2.192,12.168,2.192h13.918c2.43,0,4.401,1.988,4.401,4.419
		c0,2.43-1.971,4.401-4.401,4.401H62.437v5.098h23.214c5.234,0,9.5-4.266,9.5-9.5c0-0.425-0.034-0.833-0.085-1.241l13.323-8.531
		l0.306-0.493c2.719-4.385,6.118-5.574,8.48-5.795c1.801-0.17,3.382,0.17,4.469,0.578C115.611,71.971,89.491,96.477,84.869,99.944z
		 M45.338,30.354c0.023,2.477,0.361,4.992,1.032,7.495c4.293,16.022,20.765,25.535,36.787,21.242
		c16.021-4.293,25.527-20.765,21.234-36.787l-0.045-0.174C99.974,6.204,83.565-3.212,67.611,1.063
		C59.6,3.209,53.217,8.403,49.374,15.06C46.731,19.636,45.283,24.905,45.338,30.354L45.338,30.354z M49.799,30.013
		c0.009-4.326,1.111-8.708,3.429-12.723C60.288,5.062,75.92,0.864,88.155,7.913L88.17,7.92c12.237,7.065,16.434,22.714,9.369,34.951
		c-7.065,12.237-22.715,16.426-34.95,9.362C54.367,47.486,49.782,38.87,49.799,30.013L49.799,30.013z M78.25,27.337
		c1.487,0,2.247,0.608,2.247,1.948c0,1.339-0.76,1.948-2.247,1.948h-2.863c0.108,0.324,0.181,0.608,0.181,0.974
		c0,2.394-1.777,4.748-3.698,6.371l0.071,0.081c1.27-0.568,2.285-1.258,4.024-1.258c2.357,0,3.661,0.812,5.51,0.812
		c0.617,0,2.103-0.446,2.684-0.446c1.341,0,2.103,1.136,2.103,2.597c0,2.475-2.139,3.449-4.169,3.449
		c-2.466,0-5.148-1.543-8.338-1.543c-1.45,0-2.285,0.365-2.901,0.772c-0.652,0.365-1.087,0.771-1.812,0.771
		c-1.523,0-2.32-1.217-2.32-2.801c0-2.638,3.771-3.733,3.771-7.751c0-0.73-0.183-1.421-0.4-2.029h-1.92
		c-1.16,0-1.958-0.65-1.958-1.948c0-1.177,0.581-1.948,1.704-1.948h0.76c-0.76-1.217-1.087-2.76-1.087-4.342
		c0-5.032,3.988-8.563,9.1-8.563c6.345,0,9.425,3.815,9.425,6.98c0,1.826-1.124,2.84-2.718,2.84c-3.19,0-1.233-4.951-6.127-4.951
		c-2.138,0-4.169,1.421-4.169,4.059c0,1.38,0.617,2.76,1.197,3.977H78.25z"/>
</g>
<g id="Layer_1">
</g>
</svg>
